<svg width="16" height="19" viewBox="0 0 16 19" fill="none" xmlns="http://www.w3.org/2000/svg">
<path d="M1.64149 7.9161L2.63855 7.99262L2.63856 7.99258L1.64149 7.9161ZM3.2218 6.39025L3.22159 7.39025H3.2218V6.39025ZM12.7782 6.39025L12.7782 7.39025L12.7784 7.39025L12.7782 6.39025ZM14.3585 7.9161L13.3614 7.99258L13.3614 7.99262L14.3585 7.9161ZM14.9949 16.2088L15.992 16.1323L15.992 16.1323L14.9949 16.2088ZM14.9132 16.8829L13.9636 16.5695L14.9132 16.8829ZM13.4154 18L13.4154 19L13.4157 19L13.4154 18ZM2.5846 18L2.5843 19H2.5846V18ZM1.08685 16.8829L2.03645 16.5695L1.08685 16.8829ZM1.00508 16.2088L0.00801232 16.1323L0.00800922 16.1323L1.00508 16.2088ZM10.1701 7.28767C10.1701 7.83996 10.6179 8.28767 11.1701 8.28767C11.7224 8.28767 12.1701 7.83996 12.1701 7.28767H10.1701ZM11.1701 4.31707L12.1701 4.31707L11.1701 4.31707ZM8 1L8 0L8 1ZM4.82986 4.31707H3.82986H4.82986ZM3.82986 7.28767C3.82986 7.83996 4.27757 8.28767 4.82986 8.28767C5.38214 8.28767 5.82986 7.83996 5.82986 7.28767H3.82986ZM2.63856 7.99258C2.65221 7.81462 2.72901 7.65757 2.84115 7.54929L1.45195 6.1105C0.978374 6.56775 0.694524 7.18633 0.644415 7.83962L2.63856 7.99258ZM2.84115 7.54929C2.95201 7.44225 3.08849 7.39022 3.22159 7.39025L3.22202 5.39025C2.55814 5.3901 1.9268 5.65201 1.45195 6.1105L2.84115 7.54929ZM3.2218 7.39025H12.7782V5.39025H3.2218V7.39025ZM12.7784 7.39025C12.9115 7.39022 13.048 7.44225 13.1588 7.54929L14.5481 6.1105C14.0732 5.65201 13.4419 5.3901 12.778 5.39025L12.7784 7.39025ZM13.1588 7.54929C13.271 7.65757 13.3478 7.81462 13.3614 7.99258L15.3556 7.83962C15.3055 7.18633 15.0216 6.56775 14.5481 6.1105L13.1588 7.54929ZM13.3614 7.99262L13.9979 16.2853L15.992 16.1323L15.3556 7.83958L13.3614 7.99262ZM13.9978 16.2853C14.0053 16.3822 13.9933 16.4792 13.9636 16.5695L15.8628 17.1964C15.9758 16.8538 16.0196 16.4918 15.992 16.1323L13.9978 16.2853ZM13.9636 16.5695C13.9338 16.6597 13.8874 16.7394 13.8298 16.8048L15.3299 18.1276C15.5691 17.8563 15.7497 17.539 15.8628 17.1964L13.9636 16.5695ZM13.8298 16.8048C13.7723 16.87 13.7052 16.919 13.6343 16.9516L14.4678 18.7696C14.7977 18.6184 15.0907 18.3989 15.3299 18.1276L13.8298 16.8048ZM13.6343 16.9516C13.5635 16.984 13.489 17 13.4151 17L13.4157 19C13.7794 18.9999 14.1377 18.9209 14.4678 18.7696L13.6343 16.9516ZM13.4154 17H2.5846V19H13.4154V17ZM2.58491 17C2.51098 17 2.43649 16.984 2.36571 16.9516L1.53224 18.7696C1.86227 18.9209 2.22063 18.9999 2.5843 19L2.58491 17ZM2.36571 16.9516C2.29478 16.919 2.22766 16.87 2.17017 16.8048L0.67009 18.1276C0.909344 18.3989 1.20235 18.6184 1.53224 18.7696L2.36571 16.9516ZM2.17017 16.8048C2.11257 16.7394 2.06623 16.6597 2.03645 16.5695L0.137244 17.1964C0.250328 17.539 0.430938 17.8563 0.67009 18.1276L2.17017 16.8048ZM2.03645 16.5695C2.00665 16.4792 1.99471 16.3822 2.00215 16.2853L0.00800922 16.1323C-0.0195617 16.4918 0.024181 16.8538 0.137244 17.1964L2.03645 16.5695ZM2.00215 16.2853L2.63855 7.99262L0.644418 7.83958L0.00801232 16.1323L2.00215 16.2853ZM12.1701 7.28767V4.31707H10.1701V7.28767H12.1701ZM12.1701 4.31707C12.1701 3.18636 11.7413 2.09336 10.9646 1.28063L9.51869 2.66246C9.931 3.09388 10.1701 3.6883 10.1701 4.31707L12.1701 4.31707ZM10.9646 1.28063C10.1864 0.466369 9.12098 0 8 0V2C8.56056 2 9.10785 2.23258 9.51869 2.66246L10.9646 1.28063ZM8 0C6.87901 0 5.81363 0.466369 5.03543 1.28063L6.48131 2.66246C6.89214 2.23258 7.43943 2 8 2L8 0ZM5.03543 1.28063C4.25871 2.09336 3.82986 3.18636 3.82986 4.31707L5.82986 4.31707C5.82986 3.6883 6.069 3.09388 6.48131 2.66246L5.03543 1.28063ZM3.82986 4.31707V7.28767H5.82986V4.31707H3.82986Z" fill="white"/>
</svg>
